# xmcd
#
# Track frame offsets: 
#        150
#        13118
#        31608
#        43019
#        57865
#        68281
#        80019
#        91518
#        108662
#        125695
#        144623
#        162578
#        181462
#        194447
#        210152
#        228887
#        242116
#        256185
#        270711
#        284875
#
# Disc length: 4002 seconds
#
# Revision: 5
# Processed by: cddbd v1.4PL0 Copyright (c) Steve Scherf et al.
# Submitted via: ExactAudioCopy v0.90b4
#
DISCID=180fa014
DTITLE=Daniel O'Donnell - Dreaming
DYEAR=2002
DGENRE=Pop-Folk
TTITLE0=I Just Want To Dance With You
TTITLE1=The Love In Your Eyes
TTITLE2=Send Me The Pillow You Dream On
TTITLE3=I Love You Because
TTITLE4=Home Is Where The Heart Is
TTITLE5=Pretty Little Girl From Omagh
TTITLE6=Moonlight And Roses
TTITLE7=I Need You
TTITLE8=Veil Of With Lace
TTITLE9=Wedding Bells
TTITLE10=Follow Your Dream
TTITLE11=Sweet Memories
TTITLE12=Green Glens Of Antrim
TTITLE13=My Donegal Shore
TTITLE14=Far Far From Home
TTITLE15=Bush Eyes
TTITLE16=Welcome Home
TTITLE17=A Little Piece Of Heaven
TTITLE18=Old Days Remembered
TTITLE19=My Favourite Memory
EXTD=ID3G:   2
EXTT0=
EXTT1=
EXTT2=
EXTT3=
EXTT4=
EXTT5=
EXTT6=
EXTT7=
EXTT8=
EXTT9=
EXTT10=
EXTT11=
EXTT12=
EXTT13=
EXTT14=
EXTT15=
EXTT16=
EXTT17=
EXTT18=
EXTT19=
PLAYORDER=
